<svg width="37" height="39" viewBox="0 0 37 39" fill="none" xmlns="http://www.w3.org/2000/svg">
<g clip-path="url(#clip0_9_1163)">
<path d="M23.9377 5.60535L32.4855 14.0976C35.4979 17.0904 35.4979 21.9877 32.4855 24.9809L24.0167 33.3946C21.0043 36.3874 16.075 36.3874 13.0623 33.3946L4.51445 24.902C1.5021 21.9092 1.5021 17.0119 4.51445 14.0188L12.9833 5.60496C15.9956 2.61257 20.9253 2.61257 23.9377 5.60535Z" fill="#2962FF"/>
<path d="M18.5041 24.8462C21.4827 24.8462 23.8974 22.4472 23.8974 19.4879C23.8974 16.5286 21.4827 14.1296 18.5041 14.1296C15.5254 14.1296 13.1107 16.5286 13.1107 19.4879C13.1107 22.4472 15.5254 24.8462 18.5041 24.8462Z" fill="white"/>
</g>
<defs>
<clipPath id="clip0_9_1163">
<rect width="37" height="39" fill="white"/>
</clipPath>
</defs>
</svg>
