<svg width="328" height="324" viewBox="0 0 328 324" fill="none" xmlns="http://www.w3.org/2000/svg">
<path d="M301.848 149.741L254.171 109.655L246.372 103.996C245.383 103.28 243.985 103.713 243.577 104.86L243.561 104.892C243.325 105.56 243.49 106.299 243.993 106.802L249.278 112.099C249.278 112.099 244.637 111.612 247.81 115.77C250.982 119.928 291.82 159.778 291.82 159.778L301.848 149.741Z" fill="#FFD9D9"/>
<path d="M249.286 112.1L255.883 116.258" stroke="#AA4944" stroke-width="0.7788" stroke-miterlimit="10" stroke-linecap="round"/>
<path d="M277.008 145.245C285.16 153.27 291.828 159.778 291.828 159.778L301.848 149.749L285.584 136.072L277.008 145.245Z" fill="#C7E6F9"/>
<path opacity="0.6" d="M262.542 130.924C265.896 134.265 269.493 137.825 272.98 141.268C273.584 131.765 262.542 130.924 262.542 130.924Z" fill="#D25C53"/>
<path d="M154.897 298.358C198.304 298.358 233.493 296.278 233.493 293.713C233.493 291.147 198.304 289.067 154.897 289.067C111.489 289.067 76.3007 291.147 76.3007 293.713C76.3007 296.278 111.489 298.358 154.897 298.358Z" fill="url(#paint0_radial_160_1298)"/>
<path d="M218.959 43.797L205.949 64.8179L225.316 76.8253L238.327 55.8044L218.959 43.797Z" fill="#8EBEED"/>
<path d="M218.957 43.7994L214.081 51.6772L233.449 63.6847L238.325 55.8069L218.957 43.7994Z" fill="#473D59"/>
<path d="M238.888 63.1314L212.077 46.5075C209.933 45.1791 209.273 42.3652 210.601 40.2273L215.768 31.88C217.095 29.7342 219.907 29.074 222.043 30.4023L248.854 47.0262C250.998 48.3546 251.658 51.1684 250.331 53.3064L245.163 61.6537C243.836 63.7995 241.024 64.4597 238.888 63.1314Z" fill="#62B3ED"/>
<path d="M222.047 30.4277L212.081 46.5308L215.826 48.8528L225.793 32.7497L222.047 30.4277Z" fill="#BEE3F8"/>
<path d="M229.758 35.2006L219.792 51.3037L223.537 53.6257L233.504 37.5226L229.758 35.2006Z" fill="#BEE3F8"/>
<path d="M237.458 39.976L227.492 56.0791L231.237 58.4011L241.204 42.298L237.458 39.976Z" fill="#BEE3F8"/>
<path d="M245.165 44.7553L235.198 60.8584L238.944 63.1804L248.91 47.0773L245.165 44.7553Z" fill="#BEE3F8"/>
<path d="M90.6151 43.7694L71.2477 55.7769L84.2582 76.7978L103.626 64.7903L90.6151 43.7694Z" fill="#8EBEED"/>
<path d="M90.6166 43.7748L71.2492 55.7822L76.125 63.66L95.4924 51.6526L90.6166 43.7748Z" fill="#473D59"/>
<path d="M70.6856 63.1314L97.4968 46.5075C99.6408 45.1791 100.3 42.3652 98.9733 40.2273L93.8058 31.88C92.4786 29.7342 89.6671 29.074 87.531 30.4023L60.7197 47.0262C58.5757 48.3546 57.9161 51.1684 59.2433 53.3064L64.4108 61.6537C65.7301 63.7995 68.5416 64.4597 70.6856 63.1314Z" fill="#62B3ED"/>
<path d="M87.5198 30.3914L83.7745 32.7134L93.7412 48.8165L97.4865 46.4945L87.5198 30.3914Z" fill="#BEE3F8"/>
<path d="M79.8171 35.1692L76.0718 37.4912L86.0385 53.5943L89.7838 51.2723L79.8171 35.1692Z" fill="#BEE3F8"/>
<path d="M72.1143 39.9475L68.369 42.2695L78.3357 58.3726L82.081 56.0506L72.1143 39.9475Z" fill="#BEE3F8"/>
<path d="M64.4116 44.7253L60.6663 47.0474L70.633 63.1505L74.3783 60.8284L64.4116 44.7253Z" fill="#BEE3F8"/>
<path d="M172.52 20.2314H137.078V58.6904H172.52V20.2314Z" fill="#8EBEED"/>
<path d="M172.52 20.2314H137.078V34.6467H172.52V20.2314Z" fill="#473D59"/>
<path d="M154.779 294.003C224.054 294.003 280.213 237.797 280.213 168.463C280.213 99.1295 224.054 42.9233 154.779 42.9233C85.5041 42.9233 29.3456 99.1295 29.3456 168.463C29.3456 237.797 85.5041 294.003 154.779 294.003Z" fill="#BEE3F8"/>
<path d="M154.779 285.68C219.5 285.68 271.967 233.169 271.967 168.393C271.967 103.617 219.5 51.106 154.779 51.106C90.0582 51.106 37.5916 103.617 37.5916 168.393C37.5916 233.169 90.0582 285.68 154.779 285.68Z" fill="#62B3ED"/>
<path d="M232.164 245.682C274.904 202.905 274.904 133.551 232.164 90.7744C189.424 47.998 120.128 47.998 77.3879 90.7744C34.6477 133.551 34.6478 202.905 77.3879 245.682C120.128 288.458 189.424 288.458 232.164 245.682Z" fill="white"/>
<path d="M226.048 212C226.229 209.642 228.42 208.023 230.312 209.053C234.357 211.246 238.323 213.572 242.265 215.938C243.561 216.716 243.797 218.516 243.003 219.782C242.202 221.079 240.561 221.542 239.1 220.733C235.975 218.996 232.888 217.18 229.794 215.396C229.072 214.979 228.263 214.649 227.658 214.099C227.022 213.517 226.582 212.708 226.048 212Z" fill="#8EBEED"/>
<path d="M157.677 261.282C157.677 263.373 157.693 265.472 157.669 267.563C157.653 269.402 156.475 270.691 154.842 270.714C153.122 270.738 151.865 269.433 151.865 267.555C151.858 263.365 151.858 259.176 151.881 254.994C151.889 253.029 153.036 251.803 154.787 251.795C156.53 251.795 157.653 253.014 157.669 255.01C157.685 257.093 157.669 259.192 157.677 261.282C157.669 261.282 157.669 261.282 157.677 261.282Z" fill="#8EBEED"/>
<path d="M247.299 171.568C245.21 171.568 243.113 171.584 241.024 171.561C239.022 171.537 237.844 170.437 237.852 168.644C237.859 166.947 239.022 165.807 240.954 165.791C245.187 165.752 249.42 165.752 253.653 165.783C255.475 165.799 256.739 167.065 256.723 168.715C256.707 170.382 255.459 171.529 253.59 171.553C251.501 171.576 249.404 171.561 247.307 171.561C247.299 171.561 247.299 171.561 247.299 171.568Z" fill="#8EBEED"/>
<path d="M114.68 243.543C114.578 243.802 114.413 244.431 114.099 244.981C112.057 248.581 110.007 252.165 107.926 255.733C106.992 257.345 105.334 257.879 103.913 257.077C102.366 256.213 101.918 254.554 102.869 252.88C104.95 249.202 107.054 245.539 109.19 241.884C110.007 240.485 111.382 239.919 112.74 240.399C113.989 240.854 114.688 241.766 114.68 243.543Z" fill="#8EBEED"/>
<path d="M198.412 240.265C198.813 240.595 199.834 241.082 200.336 241.9C202.527 245.468 204.585 249.115 206.642 252.754C207.616 254.483 207.239 256.158 205.779 257.014C204.247 257.918 202.622 257.407 201.569 255.607C199.457 251.992 197.352 248.376 195.302 244.721C194.101 242.583 195.436 240.249 198.412 240.265Z" fill="#8EBEED"/>
<path d="M62.2746 171.529C60.1857 171.529 58.0888 171.545 55.9998 171.521C54.0836 171.498 52.9213 170.405 52.9213 168.676C52.9213 166.962 54.0915 165.823 56.0077 165.799C60.1935 165.76 64.3793 165.752 68.5652 165.775C70.4107 165.783 71.7065 166.994 71.7301 168.613C71.7536 170.374 70.5599 171.49 68.5573 171.521C66.4605 171.553 64.3636 171.529 62.2746 171.529Z" fill="#8EBEED"/>
<path d="M69.2327 221.126C67.6149 221.016 66.6882 220.355 66.2798 219.051C65.8715 217.769 66.3662 216.465 67.6385 215.71C70.9133 213.777 74.2196 211.882 77.518 209.98C77.997 209.705 78.4839 209.414 78.9787 209.171C80.5101 208.416 82.1593 208.903 82.9289 210.334C83.6671 211.694 83.2273 213.321 81.7823 214.193C79.1907 215.742 76.5677 217.227 73.9525 218.744C72.9081 219.349 71.8793 219.986 70.8112 220.544C70.2458 220.835 69.6097 220.992 69.2327 221.126Z" fill="#8EBEED"/>
<path d="M157.622 76.1479C157.622 78.2387 157.638 80.3294 157.614 82.4202C157.598 84.2516 156.444 85.4934 154.755 85.5485C153.248 85.5956 151.928 84.2987 151.913 82.5459C151.865 78.2701 151.873 73.9943 151.913 69.7184C151.928 67.9735 153.208 66.7316 154.787 66.7552C156.483 66.7788 157.598 67.9892 157.606 69.8678C157.622 71.9585 157.606 74.0493 157.606 76.14C157.614 76.1479 157.614 76.1479 157.622 76.1479Z" fill="#8EBEED"/>
<path d="M229.511 128.527C227.894 128.527 226.936 127.922 226.496 126.617C226.032 125.249 226.496 123.952 227.839 123.151C230.595 121.508 233.391 119.928 236.163 118.325C237.129 117.766 238.079 117.177 239.069 116.666C240.561 115.888 242.179 116.312 242.98 117.633C243.836 119.048 243.475 120.706 241.943 121.618C238.181 123.85 234.38 126.012 230.587 128.181C230.202 128.393 229.723 128.456 229.511 128.527Z" fill="#8EBEED"/>
<path d="M207.255 82.8291C207.019 83.4579 206.894 84.0081 206.627 84.4797C204.569 88.111 202.504 91.7424 200.383 95.3423C199.37 97.0636 197.752 97.5352 196.26 96.6627C194.831 95.8296 194.454 94.2026 195.404 92.5284C197.493 88.8578 199.59 85.195 201.766 81.5715C202.967 79.5751 205.135 79.4022 206.478 81.1156C206.855 81.603 207.004 82.2554 207.255 82.8291Z" fill="#8EBEED"/>
<path d="M79.9368 128.495C79.7247 128.417 79.1829 128.275 78.7117 128.008C75.0442 125.909 71.3845 123.795 67.7406 121.657C66.272 120.8 65.7772 119.048 66.5547 117.696C67.3243 116.367 68.9657 115.856 70.4421 116.674C74.251 118.804 78.0363 120.989 81.7902 123.206C83.0781 123.968 83.5101 125.273 83.0389 126.562C82.5755 127.843 81.6567 128.511 79.9368 128.495Z" fill="#8EBEED"/>
<path d="M114.641 93.8645C114.672 95.4601 113.926 96.5212 112.599 96.9063C111.279 97.2915 110.156 96.8828 109.465 95.7273C107.211 91.9388 104.981 88.1346 102.814 84.291C101.997 82.8527 102.531 81.1392 103.834 80.4003C105.177 79.6379 106.819 79.9995 107.69 81.4536C109.937 85.1949 112.096 88.9835 114.272 92.7641C114.507 93.1571 114.57 93.6366 114.641 93.8645Z" fill="#8EBEED"/>
<path d="M154.779 200.163C172.159 200.163 186.247 186.062 186.247 168.668C186.247 151.274 172.159 137.173 154.779 137.173C137.4 137.173 123.311 151.274 123.311 168.668C123.311 186.062 137.4 200.163 154.779 200.163Z" fill="#8EBEED"/>
<path d="M161.052 174.259C164.38 170.928 164.38 165.529 161.052 162.198C157.725 158.868 152.33 158.868 149.002 162.198C145.675 165.529 145.675 170.928 149.002 174.259C152.33 177.589 157.725 177.589 161.052 174.259Z" fill="#7396C0"/>
<path d="M157.905 81.5789C157.905 79.9912 156.617 78.7021 155.03 78.7021C153.444 78.7021 152.156 79.9912 152.156 81.5789V167.897C152.156 169.485 153.444 170.774 155.03 170.774C156.617 170.774 157.905 169.485 157.905 167.897V81.5789Z" fill="#473D59"/>
<path d="M109.693 198.135C108.303 198.937 106.52 198.457 105.719 197.066C104.918 195.675 105.397 193.891 106.787 193.089L153.538 166.153C154.928 165.351 156.711 165.83 157.512 167.222C158.313 168.613 157.834 170.397 156.444 171.199L109.693 198.135Z" fill="#473D59"/>
<path d="M179.281 29.475H130.222C126.303 29.475 123.13 26.2996 123.13 22.3774V7.09758C123.13 3.17544 126.303 0 130.222 0H179.281C183.2 0 186.373 3.17544 186.373 7.09758V22.3696C186.373 26.2917 183.2 29.475 179.281 29.475Z" fill="#62B3ED"/>
<path d="M137.078 0H130.222V29.4671H137.078V0Z" fill="#BEE3F8"/>
<path d="M151.174 0H144.318V29.4671H151.174V0Z" fill="#BEE3F8"/>
<path d="M165.271 0H158.415V29.4671H165.271V0Z" fill="#BEE3F8"/>
<path d="M179.376 0H172.52V29.4671H179.376V0Z" fill="#BEE3F8"/>
<path d="M327.081 295.733C327.081 298.193 306.741 300.189 281.658 300.189C256.566 300.189 236.234 298.193 236.234 295.733C236.234 293.272 256.574 291.276 281.658 291.276C306.741 291.284 327.081 293.272 327.081 295.733Z" fill="url(#paint1_radial_160_1298)"/>
<path d="M308.885 214.35C308.885 214.35 301.471 233.481 289.801 247.362C311.995 287.369 312.961 288.493 312.961 288.493H284.445L269.218 247.362L308.885 214.35Z" fill="#B0D9F6"/>
<path d="M312.961 288.493L316.181 295.732H286.26L284.445 288.493H312.961Z" fill="#2B5282"/>
<path d="M293.508 288.494L279.71 250.113C279.71 250.113 293.414 234.377 299.147 226.855C271.55 247.999 271.55 247.999 271.55 247.999L280.77 288.494H293.508Z" fill="#473D59"/>
<path d="M311.029 203.126C311.029 203.126 311.665 221.047 293.5 234.888L275.108 248.242L284.438 288.493H256.99L248.611 247.134C247.7 242.615 249.451 237.977 253.134 235.203L280.786 214.342L281.65 208.487L311.029 203.126Z" fill="#C7E6F9"/>
<path d="M284.445 288.493L286.267 295.732H247.126C247.126 295.732 248.32 290.262 256.998 288.493C279.184 288.493 284.445 288.493 284.445 288.493Z" fill="#2B5282"/>
<path d="M262.37 239.715C262.37 236.288 261.137 233.151 259.095 230.715L253.134 235.211C249.459 237.985 247.7 242.623 248.611 247.142L249.922 253.635C256.927 252.856 262.37 246.922 262.37 239.715Z" fill="#7396C0"/>
<path d="M301.848 204.95C301.848 204.95 302.524 216.017 283.511 230.715C268.016 242.128 264.734 244.006 264.734 244.006L274.825 288.494" stroke="#0F76A6" stroke-width="0.6663" stroke-miterlimit="10"/>
<path d="M254.202 193.348C254.202 193.348 260.084 194.307 267.773 193.506C272.391 193.018 275.877 192.609 277.935 192.35C278.328 190.322 278.665 188.271 278.956 186.204L254.202 193.348Z" fill="#473D59"/>
<path d="M285.05 207.873C285.05 207.873 286.244 215.191 291.089 216.873C295.636 212.361 297.333 207.26 297.804 205.547L285.05 207.873Z" fill="#7396C0"/>
<path d="M281.65 208.494C281.65 208.494 296.697 212.385 310.401 208.911C311.108 205.39 311.029 203.134 311.029 203.134L281.65 208.494Z" fill="#3082CE"/>
<path d="M294.592 138.124C294.592 138.124 294.27 134.956 296.273 132.653C298.275 130.35 305.979 131.018 308.351 133.172C310.723 135.325 309.969 144.003 304.197 148.9C302.72 146.675 294.592 138.124 294.592 138.124Z" fill="#473D59"/>
<path d="M303.914 151.344L313.699 161.413L310.88 201.758C310.88 201.758 300.152 208.235 285.097 206.985C292.063 159.951 292.063 159.951 292.063 159.951C292.063 159.951 293.555 151.517 301.558 150.511C303.914 151.344 303.914 151.344 303.914 151.344Z" fill="#62B3ED"/>
<path d="M285.05 187.815C285.05 187.815 298.699 186.094 312.537 183.736L313.228 174.807L290.94 181.409L285.05 187.815Z" fill="#473D59"/>
<path d="M314.249 161.704C314.249 161.704 321.984 169.021 317.249 176.512C313.189 182.933 270.082 191.124 257.854 193.324C254.972 193.843 251.956 193.167 249.71 191.289C249.404 191.037 249.113 190.762 248.846 190.463C244.126 190.676 241.558 188.75 243.27 187.673C244.982 186.596 250.598 185.095 250.598 185.095C250.598 185.095 252.066 183.382 249.066 183.382C246.066 183.382 246.49 179.648 252.71 179.585C258.93 179.522 278.014 175.655 288.521 172.865C299.029 170.075 314.249 161.704 314.249 161.704Z" fill="#FFD9D9"/>
<path d="M248.846 190.463C248.846 190.463 252.066 189.819 254.21 189.174" stroke="#AA4944" stroke-width="0.6837" stroke-miterlimit="10" stroke-linecap="round"/>
<path d="M299.642 184.152C308.579 181.637 315.717 178.948 317.249 176.52C321.984 169.029 314.249 161.711 314.249 161.711C314.249 161.711 303.254 167.756 293.508 171.285C295.66 173.832 298.629 178.257 299.642 184.152Z" fill="#62B3ED"/>
<path d="M297.521 148.617V154.088C297.521 154.088 293.021 159.401 296.233 158.914C299.453 158.434 304.919 153.781 304.919 153.781V143.783L297.521 148.617Z" fill="#FFD9D9"/>
<path d="M297.521 152.5C299.155 151.871 302.422 150.189 304.197 146.259C304.699 145.15 304.668 144.506 304.322 144.176L297.529 148.609V152.5H297.521Z" fill="#7A2D33"/>
<path d="M296.877 134.453C296.877 134.453 293.178 139.601 291.733 144.758C290.288 149.906 291.733 150.071 291.733 150.071C291.733 150.071 295.754 151.682 301.542 148.782C306.042 145.402 306.851 141.213 306.851 141.213C306.851 141.213 301.542 141.213 300.419 136.544C299.61 141.048 297.042 139.114 296.877 134.453Z" fill="#FC9D99"/>
<path d="M309.506 144.349C309.506 145.819 308.32 147.006 306.851 147.006C305.383 147.006 304.197 145.819 304.197 144.349C304.197 142.879 305.383 141.692 306.851 141.692C308.32 141.692 309.506 142.879 309.506 144.349Z" fill="#FC9D99"/>
<path d="M298.181 141.991C298.181 141.991 299.846 141.653 301.33 142.691" stroke="#AA4944" stroke-width="0.5974" stroke-miterlimit="10" stroke-linecap="round"/>
<path d="M295.118 141.205C295.118 141.205 294.623 140.725 293.296 140.694" stroke="#AA4944" stroke-width="0.5974" stroke-miterlimit="10" stroke-linecap="round"/>
<path d="M293.296 145.481L297.93 146.338C297.93 146.338 293.964 148.782 293.296 145.481Z" fill="white"/>
<path d="M298.966 140.057C298.966 140.057 300.631 139.711 301.848 140.969" stroke="#473D59" stroke-width="0.7476" stroke-miterlimit="10" stroke-linecap="round"/>
<path d="M296.54 139.483C296.54 139.483 295.346 138.375 294.301 138.658" stroke="#473D59" stroke-width="0.7476" stroke-miterlimit="10" stroke-linecap="round"/>
<path opacity="0.6" d="M295.644 185.236C294.286 182.548 291.506 180.701 288.286 180.701C283.739 180.701 280.048 184.387 280.04 188.938C285.215 187.807 290.61 186.557 295.644 185.236Z" fill="#EA9A96"/>
<path d="M295.369 142.69L294.246 144.239L295.904 144.726" stroke="#AA4944" stroke-width="0.5974" stroke-miterlimit="10" stroke-linecap="round"/>
<path opacity="0.34" d="M300.419 136.544C299.618 141.048 297.042 139.122 296.877 134.453C296.877 134.453 293.178 139.601 291.733 144.758C290.288 149.906 291.733 150.071 291.733 150.071C291.733 150.071 293.61 150.826 296.65 150.37C299.846 147.752 302.053 143.162 303.223 140.23C302.021 139.554 300.875 138.438 300.419 136.544Z" fill="white"/>
<path d="M273.757 289.893C273.757 290.663 273.137 291.284 272.367 291.284H258.388C257.618 291.284 256.998 290.663 256.998 289.893C256.998 289.122 257.618 288.502 258.388 288.502H272.367C273.137 288.494 273.757 289.122 273.757 289.893Z" fill="white"/>
<defs>
<radialGradient id="paint0_radial_160_1298" cx="0" cy="0" r="1" gradientUnits="userSpaceOnUse" gradientTransform="translate(154.897 293.715) scale(55.6728 55.7201)">
<stop stop-color="#BEE3F8"/>
<stop offset="1" stop-color="#2B6CB0"/>
</radialGradient>
<radialGradient id="paint1_radial_160_1298" cx="0" cy="0" r="1" gradientUnits="userSpaceOnUse" gradientTransform="translate(281.653 295.735) scale(32.2741 32.3015)">
<stop stop-color="#BEE3F8"/>
<stop offset="1" stop-color="#2B6CB0"/>
</radialGradient>
</defs>
</svg>
