<svg width="173" height="28" viewBox="0 0 173 28" fill="none" xmlns="http://www.w3.org/2000/svg">
<path d="M9.88922 5.44L9.68922 2.68H19.0092C19.0892 2.78667 19.1692 2.96 19.2492 3.2C19.3292 3.44 19.3692 3.69333 19.3692 3.96C19.3692 4.38667 19.2626 4.74667 19.0492 5.04C18.8359 5.30667 18.5292 5.44 18.1292 5.44H9.88922ZM9.96922 2.68L10.1692 5.44H0.809219C0.729219 5.30667 0.649219 5.12 0.569219 4.88C0.489219 4.64 0.449219 4.38667 0.449219 4.12C0.449219 3.66667 0.555885 3.32 0.769219 3.08C0.982552 2.81333 1.28922 2.68 1.68922 2.68H9.96922ZM8.28922 4.36H11.5292V26.92C11.3959 26.9733 11.1826 27.0267 10.8892 27.08C10.6226 27.16 10.3426 27.2 10.0492 27.2C9.46255 27.2 9.02255 27.08 8.72922 26.84C8.43589 26.6 8.28922 26.2267 8.28922 25.72V4.36ZM22.9114 2.68C22.9114 2.12 23.1114 1.65333 23.5114 1.28C23.9114 0.879999 24.4047 0.679998 24.9914 0.679998C25.6047 0.679998 26.0981 0.879999 26.4714 1.28C26.8447 1.65333 27.0314 2.12 27.0314 2.68C27.0314 3.24 26.8447 3.72 26.4714 4.12C26.0981 4.49333 25.6047 4.68 24.9914 4.68C24.4047 4.68 23.9114 4.49333 23.5114 4.12C23.1114 3.72 22.9114 3.24 22.9114 2.68ZM23.3914 16.44H26.5914V26.92C26.4581 26.9733 26.2581 27.0267 25.9914 27.08C25.7247 27.16 25.4314 27.2 25.1114 27.2C24.5514 27.2 24.1247 27.0933 23.8314 26.88C23.5381 26.64 23.3914 26.2667 23.3914 25.76V16.44ZM26.5914 18H23.3914V8.6C23.5247 8.54667 23.7247 8.49333 23.9914 8.44C24.2847 8.36 24.5914 8.32 24.9114 8.32C25.4714 8.32 25.8847 8.44 26.1514 8.68C26.4447 8.89333 26.5914 9.26667 26.5914 9.8V18ZM47.7598 14.2V18.8H44.5598V14.44C44.5598 13.1333 44.1732 12.1733 43.3998 11.56C42.6532 10.9467 41.6532 10.64 40.3998 10.64C39.5732 10.64 38.7732 10.7733 37.9998 11.04C37.2265 11.3067 36.5732 11.6133 36.0398 11.96V18.8H32.8398V12.12C32.8398 11.5867 32.9465 11.1333 33.1598 10.76C33.3998 10.3867 33.7998 10.0267 34.3598 9.68C35.0798 9.22667 35.9865 8.84 37.0798 8.52C38.1998 8.17333 39.3198 8 40.4398 8C41.7998 8 42.9998 8.21333 44.0398 8.64C45.0798 9.04 45.8532 9.6 46.3598 10.32C46.5198 10.48 46.6532 10.6267 46.7598 10.76C46.8665 10.8933 46.9732 11.0667 47.0798 11.28C47.2665 11.6 47.4265 12.0133 47.5598 12.52C47.6932 13.0267 47.7598 13.5867 47.7598 14.2ZM59.4798 14.28V18.8H56.2798V14.44C56.2798 13.1333 55.9065 12.1733 55.1598 11.56C54.4132 10.9467 53.4132 10.64 52.1598 10.64C51.2265 10.64 50.3198 10.84 49.4398 11.24C48.5865 11.6133 47.8132 12.16 47.1198 12.88L45.8398 10.56C46.5332 9.86667 47.4398 9.26667 48.5598 8.76C49.6798 8.25333 50.9598 8 52.3998 8C53.8398 8 55.0798 8.22667 56.1198 8.68C57.1865 9.13333 58.0132 9.82667 58.5998 10.76C59.1865 11.6933 59.4798 12.8667 59.4798 14.28ZM32.8398 16.68H36.0398V26.92C35.9065 26.9733 35.7065 27.0267 35.4398 27.08C35.1732 27.16 34.8798 27.2 34.5598 27.2C33.9998 27.2 33.5732 27.0933 33.2798 26.88C32.9865 26.64 32.8398 26.2667 32.8398 25.76V16.68ZM44.5598 16.68H47.7598V26.92C47.6265 26.9733 47.4132 27.0267 47.1198 27.08C46.8532 27.16 46.5732 27.2 46.2798 27.2C45.6932 27.2 45.2532 27.0933 44.9598 26.88C44.6932 26.64 44.5598 26.2667 44.5598 25.76V16.68ZM56.2798 16.68H59.4798V26.92C59.3465 26.9733 59.1332 27.0267 58.8398 27.08C58.5732 27.16 58.2932 27.2 57.9998 27.2C57.4132 27.2 56.9732 27.0933 56.6798 26.88C56.4132 26.64 56.2798 26.2667 56.2798 25.76V16.68ZM66.6561 19.8L66.4961 17.28L78.5761 15.64C78.4694 14.1733 77.9628 12.9733 77.0561 12.04C76.1494 11.08 74.8961 10.6 73.2961 10.6C71.6428 10.6 70.2694 11.2 69.1761 12.4C68.1094 13.5733 67.5761 15.2667 67.5761 17.48V18.36C67.7628 20.4933 68.4561 22.12 69.6561 23.24C70.8828 24.3333 72.5494 24.88 74.6561 24.88C75.7761 24.88 76.7894 24.6933 77.6961 24.32C78.6028 23.9467 79.3228 23.5467 79.8561 23.12C80.1494 23.3067 80.3761 23.5333 80.5361 23.8C80.7228 24.04 80.8161 24.32 80.8161 24.64C80.8161 25.1467 80.5228 25.6267 79.9361 26.08C79.3761 26.5067 78.6161 26.8533 77.6561 27.12C76.7228 27.3867 75.6694 27.52 74.4961 27.52C72.4428 27.52 70.6561 27.1467 69.1361 26.4C67.6428 25.6533 66.4828 24.5467 65.6561 23.08C64.8561 21.5867 64.4561 19.7733 64.4561 17.64C64.4561 16.12 64.6694 14.7733 65.0961 13.6C65.5494 12.4 66.1628 11.3867 66.9361 10.56C67.7361 9.73333 68.6828 9.10667 69.7761 8.68C70.8694 8.22667 72.0561 8 73.3361 8C74.9628 8 76.3894 8.34667 77.6161 9.04C78.8694 9.73333 79.8428 10.7067 80.5361 11.96C81.2561 13.1867 81.6161 14.6 81.6161 16.2C81.6161 16.7867 81.4828 17.2133 81.2161 17.48C80.9494 17.72 80.5761 17.8667 80.0961 17.92L66.6561 19.8ZM89.4383 11.96V18.28H86.2383V12.2C86.2383 11.5867 86.3449 11.1067 86.5583 10.76C86.7983 10.3867 87.1849 10.0267 87.7183 9.68C88.4116 9.22667 89.3583 8.84 90.5583 8.52C91.7583 8.17333 93.0916 8 94.5583 8C96.6916 8 97.7583 8.53333 97.7583 9.6C97.7583 9.86667 97.7183 10.12 97.6383 10.36C97.5583 10.5733 97.4516 10.76 97.3183 10.92C97.0516 10.8667 96.7049 10.8133 96.2783 10.76C95.8516 10.7067 95.4249 10.68 94.9983 10.68C93.7716 10.68 92.6916 10.8133 91.7583 11.08C90.8249 11.32 90.0516 11.6133 89.4383 11.96ZM86.2383 16.44L89.4383 16.92V26.92C89.3049 26.9733 89.1049 27.0267 88.8383 27.08C88.5716 27.16 88.2783 27.2 87.9583 27.2C87.3983 27.2 86.9716 27.0933 86.6783 26.88C86.3849 26.64 86.2383 26.2667 86.2383 25.76V16.44ZM101.352 10.08H107.432V26.96C107.192 27.04 106.805 27.1067 106.272 27.16C105.738 27.24 105.192 27.28 104.632 27.28C103.432 27.28 102.578 27.0667 102.072 26.64C101.592 26.2133 101.352 25.4667 101.352 24.4V10.08ZM107.432 17.76H101.352V2.68C101.618 2.62667 102.018 2.56 102.552 2.48C103.112 2.4 103.645 2.36 104.152 2.36C105.325 2.36 106.165 2.56 106.672 2.96C107.178 3.36 107.432 4.12 107.432 5.24V17.76ZM116.272 10.08H122.392V26.96C122.125 27.04 121.725 27.1067 121.192 27.16C120.658 27.24 120.112 27.28 119.552 27.28C118.352 27.28 117.498 27.0667 116.992 26.64C116.512 26.2133 116.272 25.4667 116.272 24.4V10.08ZM122.392 17.76H116.272V2.68C116.565 2.62667 116.978 2.56 117.512 2.48C118.045 2.4 118.578 2.36 119.112 2.36C120.258 2.36 121.085 2.57333 121.592 3C122.125 3.4 122.392 4.16 122.392 5.28V17.76ZM119.752 17.24H104.112V12.4H119.752V17.24ZM138.43 27.68C136.244 27.68 134.364 27.2933 132.79 26.52C131.244 25.72 130.044 24.6133 129.19 23.2C128.364 21.7867 127.95 20.1333 127.95 18.24V15.6H134.07V18.08C134.07 19.5467 134.47 20.6933 135.27 21.52C136.097 22.32 137.15 22.72 138.43 22.72C139.71 22.72 140.75 22.32 141.55 21.52C142.377 20.6933 142.79 19.5467 142.79 18.08V15.6H148.91V18.24C148.91 20.1333 148.497 21.7867 147.67 23.2C146.844 24.6133 145.644 25.72 144.07 26.52C142.497 27.2933 140.617 27.68 138.43 27.68ZM134.07 16.8H127.95V2.68C128.244 2.62667 128.657 2.56 129.19 2.48C129.724 2.4 130.257 2.36 130.79 2.36C131.937 2.36 132.764 2.56 133.27 2.96C133.804 3.36 134.07 4.12 134.07 5.24V16.8ZM148.91 16.88H142.79V2.68C143.084 2.62667 143.497 2.56 144.03 2.48C144.59 2.4 145.124 2.36 145.63 2.36C146.777 2.36 147.604 2.56 148.11 2.96C148.644 3.36 148.91 4.12 148.91 5.24V16.88ZM159.757 7.64L159.717 2.76H172.077C172.237 3 172.383 3.33333 172.517 3.76C172.65 4.18667 172.717 4.64 172.717 5.12C172.717 5.97333 172.517 6.61333 172.117 7.04C171.743 7.44 171.223 7.64 170.557 7.64H159.757ZM165.397 2.76L165.437 7.64H153.077C152.89 7.4 152.73 7.06667 152.597 6.64C152.49 6.21333 152.437 5.76 152.437 5.28C152.437 4.4 152.623 3.76 152.997 3.36C153.397 2.96 153.917 2.76 154.557 2.76H165.397ZM159.437 6.56H165.557V26.96C165.29 27.04 164.89 27.1067 164.357 27.16C163.823 27.24 163.277 27.28 162.717 27.28C161.517 27.28 160.663 27.0667 160.157 26.64C159.677 26.2133 159.437 25.4667 159.437 24.4V6.56Z" fill="#BEE3F8"/>
</svg>
